# xmcd
#
# Track frame offsets:
#	150
#	21873
#	42657
#	60177
#	82670
#	103951
#	119939
#	142245
#	161269
#	182772
#
# Disc length: 2702 seconds
#
# Revision: 4294180851
# Processed by: cddbd v1.5.2PL0 Copyright (c) Steve Scherf et al.
# Submitted via: EZCDAudioConverter 8.0.2.1
#
DISCID=880a8c0a
DTITLE=Lê Uyên Nhi - Dấu Yêu Ơi, Ngày Đó Ta Yêu Nhau
DYEAR=2004
DGENRE=Traditional Country
TTITLE0=Dấu Yêu Ơi
TTITLE1=Ngày Đó Ta Yêu Nhau
TTITLE2=Mưa cuối tuần
TTITLE3=Vết tình buồn
TTITLE4=Mong chờ
TTITLE5=Dấu tình đã xa
TTITLE6=Hoa cỏ may
TTITLE7=Em vẫn yêu anh
TTITLE8=Just A Dream
TTITLE9=Hoài niệm
EXTD=
EXTT0=
EXTT1=
EXTT2=
EXTT3=
EXTT4=
EXTT5=
EXTT6=
EXTT7=
EXTT8=
EXTT9=
PLAYORDER=
